<svg width="1408" height="942" viewBox="0 0 1408 942" fill="none" xmlns="http://www.w3.org/2000/svg">
<g opacity="0.5" clip-path="url(#clip0_1_3250)">
<mask id="mask0_1_3250" style="mask-type:alpha" maskUnits="userSpaceOnUse" x="-30" y="0" width="1440" height="1441">
<rect width="1440" height="1197" transform="translate(-30 0.00537109)" fill="url(#paint0_radial_1_3250)"/>
</mask>
<g mask="url(#mask0_1_3250)">
<g clip-path="url(#clip1_1_3250)">
<mask id="path-3-inside-1_1_3250" fill="white">
<path d="M-78 0.00537109H18V96.0054H-78V0.00537109Z"/>
</mask>
<path d="M18 96.0054V97.0054H19V96.0054H18ZM17 0.00537109V96.0054H19V0.00537109H17ZM18 95.0054H-78V97.0054H18V95.0054Z" fill="#D0D5DD" fill-opacity="0.32" mask="url(#path-3-inside-1_1_3250)"/>
<mask id="path-5-inside-2_1_3250" fill="white">
<path d="M18 0.00537109H114V96.0054H18V0.00537109Z"/>
</mask>
<path d="M114 96.0054V97.0054H115V96.0054H114ZM113 0.00537109V96.0054H115V0.00537109H113ZM114 95.0054H18V97.0054H114V95.0054Z" fill="#D0D5DD" fill-opacity="0.32" mask="url(#path-5-inside-2_1_3250)"/>
<mask id="path-7-inside-3_1_3250" fill="white">
<path d="M114 0.00537109H210V96.0054H114V0.00537109Z"/>
</mask>
<path d="M210 96.0054V97.0054H211V96.0054H210ZM209 0.00537109V96.0054H211V0.00537109H209ZM210 95.0054H114V97.0054H210V95.0054Z" fill="#D0D5DD" fill-opacity="0.32" mask="url(#path-7-inside-3_1_3250)"/>
<mask id="path-9-inside-4_1_3250" fill="white">
<path d="M210 0.00537109H306V96.0054H210V0.00537109Z"/>
</mask>
<path d="M306 96.0054V97.0054H307V96.0054H306ZM305 0.00537109V96.0054H307V0.00537109H305ZM306 95.0054H210V97.0054H306V95.0054Z" fill="#D0D5DD" fill-opacity="0.32" mask="url(#path-9-inside-4_1_3250)"/>
<mask id="path-11-inside-5_1_3250" fill="white">
<path d="M306 0.00537109H402V96.0054H306V0.00537109Z"/>
</mask>
<path d="M402 96.0054V97.0054H403V96.0054H402ZM401 0.00537109V96.0054H403V0.00537109H401ZM402 95.0054H306V97.0054H402V95.0054Z" fill="#D0D5DD" fill-opacity="0.32" mask="url(#path-11-inside-5_1_3250)"/>
<mask id="path-13-inside-6_1_3250" fill="white">
<path d="M402 0.00537109H498V96.0054H402V0.00537109Z"/>
</mask>
<path d="M498 96.0054V97.0054H499V96.0054H498ZM497 0.00537109V96.0054H499V0.00537109H497ZM498 95.0054H402V97.0054H498V95.0054Z" fill="#D0D5DD" fill-opacity="0.32" mask="url(#path-13-inside-6_1_3250)"/>
<mask id="path-15-inside-7_1_3250" fill="white">
<path d="M498 0.00537109H594V96.0054H498V0.00537109Z"/>
</mask>
<path d="M594 96.0054V97.0054H595V96.0054H594ZM593 0.00537109V96.0054H595V0.00537109H593ZM594 95.0054H498V97.0054H594V95.0054Z" fill="#D0D5DD" fill-opacity="0.32" mask="url(#path-15-inside-7_1_3250)"/>
<mask id="path-17-inside-8_1_3250" fill="white">
<path d="M594 0.00537109H690V96.0054H594V0.00537109Z"/>
</mask>
<path d="M690 96.0054V97.0054H691V96.0054H690ZM689 0.00537109V96.0054H691V0.00537109H689ZM690 95.0054H594V97.0054H690V95.0054Z" fill="#D0D5DD" fill-opacity="0.32" mask="url(#path-17-inside-8_1_3250)"/>
<mask id="path-19-inside-9_1_3250" fill="white">
<path d="M690 0.00537109H786V96.0054H690V0.00537109Z"/>
</mask>
<path d="M786 96.0054V97.0054H787V96.0054H786ZM785 0.00537109V96.0054H787V0.00537109H785ZM786 95.0054H690V97.0054H786V95.0054Z" fill="#D0D5DD" fill-opacity="0.32" mask="url(#path-19-inside-9_1_3250)"/>
<mask id="path-21-inside-10_1_3250" fill="white">
<path d="M786 0.00537109H882V96.0054H786V0.00537109Z"/>
</mask>
<path d="M882 96.0054V97.0054H883V96.0054H882ZM881 0.00537109V96.0054H883V0.00537109H881ZM882 95.0054H786V97.0054H882V95.0054Z" fill="#D0D5DD" fill-opacity="0.32" mask="url(#path-21-inside-10_1_3250)"/>
<mask id="path-23-inside-11_1_3250" fill="white">
<path d="M882 0.00537109H978V96.0054H882V0.00537109Z"/>
</mask>
<path d="M978 96.0054V97.0054H979V96.0054H978ZM977 0.00537109V96.0054H979V0.00537109H977ZM978 95.0054H882V97.0054H978V95.0054Z" fill="#D0D5DD" fill-opacity="0.32" mask="url(#path-23-inside-11_1_3250)"/>
<mask id="path-25-inside-12_1_3250" fill="white">
<path d="M978 0.00537109H1074V96.0054H978V0.00537109Z"/>
</mask>
<path d="M1074 96.0054V97.0054H1075V96.0054H1074ZM1073 0.00537109V96.0054H1075V0.00537109H1073ZM1074 95.0054H978V97.0054H1074V95.0054Z" fill="#D0D5DD" fill-opacity="0.32" mask="url(#path-25-inside-12_1_3250)"/>
<mask id="path-27-inside-13_1_3250" fill="white">
<path d="M1074 0.00537109H1170V96.0054H1074V0.00537109Z"/>
</mask>
<path d="M1170 96.0054V97.0054H1171V96.0054H1170ZM1169 0.00537109V96.0054H1171V0.00537109H1169ZM1170 95.0054H1074V97.0054H1170V95.0054Z" fill="#D0D5DD" fill-opacity="0.32" mask="url(#path-27-inside-13_1_3250)"/>
<mask id="path-29-inside-14_1_3250" fill="white">
<path d="M1170 0.00537109H1266V96.0054H1170V0.00537109Z"/>
</mask>
<path d="M1266 96.0054V97.0054H1267V96.0054H1266ZM1265 0.00537109V96.0054H1267V0.00537109H1265ZM1266 95.0054H1170V97.0054H1266V95.0054Z" fill="#D0D5DD" fill-opacity="0.32" mask="url(#path-29-inside-14_1_3250)"/>
<mask id="path-31-inside-15_1_3250" fill="white">
<path d="M1266 0.00537109H1362V96.0054H1266V0.00537109Z"/>
</mask>
<path d="M1362 96.0054V97.0054H1363V96.0054H1362ZM1361 0.00537109V96.0054H1363V0.00537109H1361ZM1362 95.0054H1266V97.0054H1362V95.0054Z" fill="#D0D5DD" fill-opacity="0.32" mask="url(#path-31-inside-15_1_3250)"/>
<mask id="path-33-inside-16_1_3250" fill="white">
<path d="M1362 0.00537109H1458V96.0054H1362V0.00537109Z"/>
</mask>
<path d="M1458 96.0054V97.0054H1459V96.0054H1458ZM1457 0.00537109V96.0054H1459V0.00537109H1457ZM1458 95.0054H1362V97.0054H1458V95.0054Z" fill="#D0D5DD" fill-opacity="0.32" mask="url(#path-33-inside-16_1_3250)"/>
<mask id="path-35-inside-17_1_3250" fill="white">
<path d="M-78 96.0054H18V192.005H-78V96.0054Z"/>
</mask>
<path d="M18 192.005V193.005H19V192.005H18ZM17 96.0054V192.005H19V96.0054H17ZM18 191.005H-78V193.005H18V191.005Z" fill="#D0D5DD" fill-opacity="0.32" mask="url(#path-35-inside-17_1_3250)"/>
<mask id="path-37-inside-18_1_3250" fill="white">
<path d="M18 96.0054H114V192.005H18V96.0054Z"/>
</mask>
<path d="M114 192.005V193.005H115V192.005H114ZM113 96.0054V192.005H115V96.0054H113ZM114 191.005H18V193.005H114V191.005Z" fill="#D0D5DD" fill-opacity="0.32" mask="url(#path-37-inside-18_1_3250)"/>
<mask id="path-39-inside-19_1_3250" fill="white">
<path d="M114 96.0054H210V192.005H114V96.0054Z"/>
</mask>
<path d="M210 192.005V193.005H211V192.005H210ZM209 96.0054V192.005H211V96.0054H209ZM210 191.005H114V193.005H210V191.005Z" fill="#D0D5DD" fill-opacity="0.32" mask="url(#path-39-inside-19_1_3250)"/>
<mask id="path-41-inside-20_1_3250" fill="white">
<path d="M210 96.0054H306V192.005H210V96.0054Z"/>
</mask>
<path d="M210 96.0054H306V192.005H210V96.0054Z" fill="#F2F4F7" fill-opacity="0.1"/>
<path d="M306 192.005V193.005H307V192.005H306ZM305 96.0054V192.005H307V96.0054H305ZM306 191.005H210V193.005H306V191.005Z" fill="#D0D5DD" fill-opacity="0.32" mask="url(#path-41-inside-20_1_3250)"/>
<mask id="path-43-inside-21_1_3250" fill="white">
<path d="M306 96.0054H402V192.005H306V96.0054Z"/>
</mask>
<path d="M402 192.005V193.005H403V192.005H402ZM401 96.0054V192.005H403V96.0054H401ZM402 191.005H306V193.005H402V191.005Z" fill="#D0D5DD" fill-opacity="0.32" mask="url(#path-43-inside-21_1_3250)"/>
<mask id="path-45-inside-22_1_3250" fill="white">
<path d="M402 96.0054H498V192.005H402V96.0054Z"/>
</mask>
<path d="M498 192.005V193.005H499V192.005H498ZM497 96.0054V192.005H499V96.0054H497ZM498 191.005H402V193.005H498V191.005Z" fill="#D0D5DD" fill-opacity="0.32" mask="url(#path-45-inside-22_1_3250)"/>
<mask id="path-47-inside-23_1_3250" fill="white">
<path d="M498 96.0054H594V192.005H498V96.0054Z"/>
</mask>
<path d="M594 192.005V193.005H595V192.005H594ZM593 96.0054V192.005H595V96.0054H593ZM594 191.005H498V193.005H594V191.005Z" fill="#D0D5DD" fill-opacity="0.32" mask="url(#path-47-inside-23_1_3250)"/>
<mask id="path-49-inside-24_1_3250" fill="white">
<path d="M594 96.0054H690V192.005H594V96.0054Z"/>
</mask>
<path d="M690 192.005V193.005H691V192.005H690ZM689 96.0054V192.005H691V96.0054H689ZM690 191.005H594V193.005H690V191.005Z" fill="#D0D5DD" fill-opacity="0.32" mask="url(#path-49-inside-24_1_3250)"/>
<mask id="path-51-inside-25_1_3250" fill="white">
<path d="M690 96.0054H786V192.005H690V96.0054Z"/>
</mask>
<path d="M786 192.005V193.005H787V192.005H786ZM785 96.0054V192.005H787V96.0054H785ZM786 191.005H690V193.005H786V191.005Z" fill="#D0D5DD" fill-opacity="0.32" mask="url(#path-51-inside-25_1_3250)"/>
<mask id="path-53-inside-26_1_3250" fill="white">
<path d="M786 96.0054H882V192.005H786V96.0054Z"/>
</mask>
<path d="M882 192.005V193.005H883V192.005H882ZM881 96.0054V192.005H883V96.0054H881ZM882 191.005H786V193.005H882V191.005Z" fill="#D0D5DD" fill-opacity="0.32" mask="url(#path-53-inside-26_1_3250)"/>
<mask id="path-55-inside-27_1_3250" fill="white">
<path d="M882 96.0054H978V192.005H882V96.0054Z"/>
</mask>
<path d="M978 192.005V193.005H979V192.005H978ZM977 96.0054V192.005H979V96.0054H977ZM978 191.005H882V193.005H978V191.005Z" fill="#D0D5DD" fill-opacity="0.32" mask="url(#path-55-inside-27_1_3250)"/>
<mask id="path-57-inside-28_1_3250" fill="white">
<path d="M978 96.0054H1074V192.005H978V96.0054Z"/>
</mask>
<path d="M1074 192.005V193.005H1075V192.005H1074ZM1073 96.0054V192.005H1075V96.0054H1073ZM1074 191.005H978V193.005H1074V191.005Z" fill="#D0D5DD" fill-opacity="0.32" mask="url(#path-57-inside-28_1_3250)"/>
<mask id="path-59-inside-29_1_3250" fill="white">
<path d="M1074 96.0054H1170V192.005H1074V96.0054Z"/>
</mask>
<path d="M1074 96.0054H1170V192.005H1074V96.0054Z" fill="#F2F4F7" fill-opacity="0.1"/>
<path d="M1170 192.005V193.005H1171V192.005H1170ZM1169 96.0054V192.005H1171V96.0054H1169ZM1170 191.005H1074V193.005H1170V191.005Z" fill="#D0D5DD" fill-opacity="0.32" mask="url(#path-59-inside-29_1_3250)"/>
<mask id="path-61-inside-30_1_3250" fill="white">
<path d="M1170 96.0054H1266V192.005H1170V96.0054Z"/>
</mask>
<path d="M1266 192.005V193.005H1267V192.005H1266ZM1265 96.0054V192.005H1267V96.0054H1265ZM1266 191.005H1170V193.005H1266V191.005Z" fill="#D0D5DD" fill-opacity="0.32" mask="url(#path-61-inside-30_1_3250)"/>
<mask id="path-63-inside-31_1_3250" fill="white">
<path d="M1266 96.0054H1362V192.005H1266V96.0054Z"/>
</mask>
<path d="M1362 192.005V193.005H1363V192.005H1362ZM1361 96.0054V192.005H1363V96.0054H1361ZM1362 191.005H1266V193.005H1362V191.005Z" fill="#D0D5DD" fill-opacity="0.32" mask="url(#path-63-inside-31_1_3250)"/>
<mask id="path-65-inside-32_1_3250" fill="white">
<path d="M1362 96.0054H1458V192.005H1362V96.0054Z"/>
</mask>
<path d="M1458 192.005V193.005H1459V192.005H1458ZM1457 96.0054V192.005H1459V96.0054H1457ZM1458 191.005H1362V193.005H1458V191.005Z" fill="#D0D5DD" fill-opacity="0.32" mask="url(#path-65-inside-32_1_3250)"/>
<mask id="path-67-inside-33_1_3250" fill="white">
<path d="M-78 192.005H18V288.005H-78V192.005Z"/>
</mask>
<path d="M18 288.005V289.005H19V288.005H18ZM17 192.005V288.005H19V192.005H17ZM18 287.005H-78V289.005H18V287.005Z" fill="#D0D5DD" fill-opacity="0.32" mask="url(#path-67-inside-33_1_3250)"/>
<mask id="path-69-inside-34_1_3250" fill="white">
<path d="M18 192.005H114V288.005H18V192.005Z"/>
</mask>
<path d="M114 288.005V289.005H115V288.005H114ZM113 192.005V288.005H115V192.005H113ZM114 287.005H18V289.005H114V287.005Z" fill="#D0D5DD" fill-opacity="0.32" mask="url(#path-69-inside-34_1_3250)"/>
<mask id="path-71-inside-35_1_3250" fill="white">
<path d="M114 192.005H210V288.005H114V192.005Z"/>
</mask>
<path d="M210 288.005V289.005H211V288.005H210ZM209 192.005V288.005H211V192.005H209ZM210 287.005H114V289.005H210V287.005Z" fill="#D0D5DD" fill-opacity="0.32" mask="url(#path-71-inside-35_1_3250)"/>
<mask id="path-73-inside-36_1_3250" fill="white">
<path d="M210 192.005H306V288.005H210V192.005Z"/>
</mask>
<path d="M306 288.005V289.005H307V288.005H306ZM305 192.005V288.005H307V192.005H305ZM306 287.005H210V289.005H306V287.005Z" fill="#D0D5DD" fill-opacity="0.32" mask="url(#path-73-inside-36_1_3250)"/>
<mask id="path-75-inside-37_1_3250" fill="white">
<path d="M306 192.005H402V288.005H306V192.005Z"/>
</mask>
<path d="M402 288.005V289.005H403V288.005H402ZM401 192.005V288.005H403V192.005H401ZM402 287.005H306V289.005H402V287.005Z" fill="#D0D5DD" fill-opacity="0.32" mask="url(#path-75-inside-37_1_3250)"/>
<mask id="path-77-inside-38_1_3250" fill="white">
<path d="M402 192.005H498V288.005H402V192.005Z"/>
</mask>
<path d="M402 192.005H498V288.005H402V192.005Z" fill="#F2F4F7" fill-opacity="0.1"/>
<path d="M498 288.005V289.005H499V288.005H498ZM497 192.005V288.005H499V192.005H497ZM498 287.005H402V289.005H498V287.005Z" fill="#D0D5DD" fill-opacity="0.32" mask="url(#path-77-inside-38_1_3250)"/>
<mask id="path-79-inside-39_1_3250" fill="white">
<path d="M498 192.005H594V288.005H498V192.005Z"/>
</mask>
<path d="M594 288.005V289.005H595V288.005H594ZM593 192.005V288.005H595V192.005H593ZM594 287.005H498V289.005H594V287.005Z" fill="#D0D5DD" fill-opacity="0.32" mask="url(#path-79-inside-39_1_3250)"/>
<mask id="path-81-inside-40_1_3250" fill="white">
<path d="M594 192.005H690V288.005H594V192.005Z"/>
</mask>
<path d="M690 288.005V289.005H691V288.005H690ZM689 192.005V288.005H691V192.005H689ZM690 287.005H594V289.005H690V287.005Z" fill="#D0D5DD" fill-opacity="0.32" mask="url(#path-81-inside-40_1_3250)"/>
<mask id="path-83-inside-41_1_3250" fill="white">
<path d="M690 192.005H786V288.005H690V192.005Z"/>
</mask>
<path d="M786 288.005V289.005H787V288.005H786ZM785 192.005V288.005H787V192.005H785ZM786 287.005H690V289.005H786V287.005Z" fill="#D0D5DD" fill-opacity="0.32" mask="url(#path-83-inside-41_1_3250)"/>
<mask id="path-85-inside-42_1_3250" fill="white">
<path d="M786 192.005H882V288.005H786V192.005Z"/>
</mask>
<path d="M786 192.005H882V288.005H786V192.005Z" fill="#F2F4F7" fill-opacity="0.1"/>
<path d="M882 288.005V289.005H883V288.005H882ZM881 192.005V288.005H883V192.005H881ZM882 287.005H786V289.005H882V287.005Z" fill="#D0D5DD" fill-opacity="0.32" mask="url(#path-85-inside-42_1_3250)"/>
<mask id="path-87-inside-43_1_3250" fill="white">
<path d="M882 192.005H978V288.005H882V192.005Z"/>
</mask>
<path d="M978 288.005V289.005H979V288.005H978ZM977 192.005V288.005H979V192.005H977ZM978 287.005H882V289.005H978V287.005Z" fill="#D0D5DD" fill-opacity="0.32" mask="url(#path-87-inside-43_1_3250)"/>
<mask id="path-89-inside-44_1_3250" fill="white">
<path d="M978 192.005H1074V288.005H978V192.005Z"/>
</mask>
<path d="M1074 288.005V289.005H1075V288.005H1074ZM1073 192.005V288.005H1075V192.005H1073ZM1074 287.005H978V289.005H1074V287.005Z" fill="#D0D5DD" fill-opacity="0.32" mask="url(#path-89-inside-44_1_3250)"/>
<mask id="path-91-inside-45_1_3250" fill="white">
<path d="M1074 192.005H1170V288.005H1074V192.005Z"/>
</mask>
<path d="M1170 288.005V289.005H1171V288.005H1170ZM1169 192.005V288.005H1171V192.005H1169ZM1170 287.005H1074V289.005H1170V287.005Z" fill="#D0D5DD" fill-opacity="0.32" mask="url(#path-91-inside-45_1_3250)"/>
<mask id="path-93-inside-46_1_3250" fill="white">
<path d="M1170 192.005H1266V288.005H1170V192.005Z"/>
</mask>
<path d="M1266 288.005V289.005H1267V288.005H1266ZM1265 192.005V288.005H1267V192.005H1265ZM1266 287.005H1170V289.005H1266V287.005Z" fill="#D0D5DD" fill-opacity="0.32" mask="url(#path-93-inside-46_1_3250)"/>
<mask id="path-95-inside-47_1_3250" fill="white">
<path d="M1266 192.005H1362V288.005H1266V192.005Z"/>
</mask>
<path d="M1362 288.005V289.005H1363V288.005H1362ZM1361 192.005V288.005H1363V192.005H1361ZM1362 287.005H1266V289.005H1362V287.005Z" fill="#D0D5DD" fill-opacity="0.32" mask="url(#path-95-inside-47_1_3250)"/>
<mask id="path-97-inside-48_1_3250" fill="white">
<path d="M1362 192.005H1458V288.005H1362V192.005Z"/>
</mask>
<path d="M1458 288.005V289.005H1459V288.005H1458ZM1457 192.005V288.005H1459V192.005H1457ZM1458 287.005H1362V289.005H1458V287.005Z" fill="#D0D5DD" fill-opacity="0.32" mask="url(#path-97-inside-48_1_3250)"/>
<mask id="path-99-inside-49_1_3250" fill="white">
<path d="M-78 288.005H18V384.005H-78V288.005Z"/>
</mask>
<path d="M-78 288.005H18V384.005H-78V288.005Z" fill="#F2F4F7" fill-opacity="0.1"/>
<path d="M18 384.005V385.005H19V384.005H18ZM17 288.005V384.005H19V288.005H17ZM18 383.005H-78V385.005H18V383.005Z" fill="#D0D5DD" fill-opacity="0.32" mask="url(#path-99-inside-49_1_3250)"/>
<mask id="path-101-inside-50_1_3250" fill="white">
<path d="M18 288.005H114V384.005H18V288.005Z"/>
</mask>
<path d="M114 384.005V385.005H115V384.005H114ZM113 288.005V384.005H115V288.005H113ZM114 383.005H18V385.005H114V383.005Z" fill="#D0D5DD" fill-opacity="0.32" mask="url(#path-101-inside-50_1_3250)"/>
<mask id="path-103-inside-51_1_3250" fill="white">
<path d="M114 288.005H210V384.005H114V288.005Z"/>
</mask>
<path d="M210 384.005V385.005H211V384.005H210ZM209 288.005V384.005H211V288.005H209ZM210 383.005H114V385.005H210V383.005Z" fill="#D0D5DD" fill-opacity="0.32" mask="url(#path-103-inside-51_1_3250)"/>
<mask id="path-105-inside-52_1_3250" fill="white">
<path d="M210 288.005H306V384.005H210V288.005Z"/>
</mask>
<path d="M306 384.005V385.005H307V384.005H306ZM305 288.005V384.005H307V288.005H305ZM306 383.005H210V385.005H306V383.005Z" fill="#D0D5DD" fill-opacity="0.32" mask="url(#path-105-inside-52_1_3250)"/>
<mask id="path-107-inside-53_1_3250" fill="white">
<path d="M306 288.005H402V384.005H306V288.005Z"/>
</mask>
<path d="M402 384.005V385.005H403V384.005H402ZM401 288.005V384.005H403V288.005H401ZM402 383.005H306V385.005H402V383.005Z" fill="#D0D5DD" fill-opacity="0.32" mask="url(#path-107-inside-53_1_3250)"/>
<mask id="path-109-inside-54_1_3250" fill="white">
<path d="M402 288.005H498V384.005H402V288.005Z"/>
</mask>
<path d="M498 384.005V385.005H499V384.005H498ZM497 288.005V384.005H499V288.005H497ZM498 383.005H402V385.005H498V383.005Z" fill="#D0D5DD" fill-opacity="0.32" mask="url(#path-109-inside-54_1_3250)"/>
<mask id="path-111-inside-55_1_3250" fill="white">
<path d="M498 288.005H594V384.005H498V288.005Z"/>
</mask>
<path d="M594 384.005V385.005H595V384.005H594ZM593 288.005V384.005H595V288.005H593ZM594 383.005H498V385.005H594V383.005Z" fill="#D0D5DD" fill-opacity="0.32" mask="url(#path-111-inside-55_1_3250)"/>
<mask id="path-113-inside-56_1_3250" fill="white">
<path d="M594 288.005H690V384.005H594V288.005Z"/>
</mask>
<path d="M690 384.005V385.005H691V384.005H690ZM689 288.005V384.005H691V288.005H689ZM690 383.005H594V385.005H690V383.005Z" fill="#D0D5DD" fill-opacity="0.32" mask="url(#path-113-inside-56_1_3250)"/>
<mask id="path-115-inside-57_1_3250" fill="white">
<path d="M690 288.005H786V384.005H690V288.005Z"/>
</mask>
<path d="M786 384.005V385.005H787V384.005H786ZM785 288.005V384.005H787V288.005H785ZM786 383.005H690V385.005H786V383.005Z" fill="#D0D5DD" fill-opacity="0.32" mask="url(#path-115-inside-57_1_3250)"/>
<mask id="path-117-inside-58_1_3250" fill="white">
<path d="M786 288.005H882V384.005H786V288.005Z"/>
</mask>
<path d="M882 384.005V385.005H883V384.005H882ZM881 288.005V384.005H883V288.005H881ZM882 383.005H786V385.005H882V383.005Z" fill="#D0D5DD" fill-opacity="0.32" mask="url(#path-117-inside-58_1_3250)"/>
<mask id="path-119-inside-59_1_3250" fill="white">
<path d="M882 288.005H978V384.005H882V288.005Z"/>
</mask>
<path d="M978 384.005V385.005H979V384.005H978ZM977 288.005V384.005H979V288.005H977ZM978 383.005H882V385.005H978V383.005Z" fill="#D0D5DD" fill-opacity="0.32" mask="url(#path-119-inside-59_1_3250)"/>
<mask id="path-121-inside-60_1_3250" fill="white">
<path d="M978 288.005H1074V384.005H978V288.005Z"/>
</mask>
<path d="M1074 384.005V385.005H1075V384.005H1074ZM1073 288.005V384.005H1075V288.005H1073ZM1074 383.005H978V385.005H1074V383.005Z" fill="#D0D5DD" fill-opacity="0.32" mask="url(#path-121-inside-60_1_3250)"/>
<mask id="path-123-inside-61_1_3250" fill="white">
<path d="M1074 288.005H1170V384.005H1074V288.005Z"/>
</mask>
<path d="M1074 288.005H1170V384.005H1074V288.005Z" fill="#F2F4F7" fill-opacity="0.1"/>
<path d="M1170 384.005V385.005H1171V384.005H1170ZM1169 288.005V384.005H1171V288.005H1169ZM1170 383.005H1074V385.005H1170V383.005Z" fill="#D0D5DD" fill-opacity="0.32" mask="url(#path-123-inside-61_1_3250)"/>
<mask id="path-125-inside-62_1_3250" fill="white">
<path d="M1170 288.005H1266V384.005H1170V288.005Z"/>
</mask>
<path d="M1266 384.005V385.005H1267V384.005H1266ZM1265 288.005V384.005H1267V288.005H1265ZM1266 383.005H1170V385.005H1266V383.005Z" fill="#D0D5DD" fill-opacity="0.32" mask="url(#path-125-inside-62_1_3250)"/>
<mask id="path-127-inside-63_1_3250" fill="white">
<path d="M1266 288.005H1362V384.005H1266V288.005Z"/>
</mask>
<path d="M1362 384.005V385.005H1363V384.005H1362ZM1361 288.005V384.005H1363V288.005H1361ZM1362 383.005H1266V385.005H1362V383.005Z" fill="#D0D5DD" fill-opacity="0.32" mask="url(#path-127-inside-63_1_3250)"/>
<mask id="path-129-inside-64_1_3250" fill="white">
<path d="M1362 288.005H1458V384.005H1362V288.005Z"/>
</mask>
<path d="M1458 384.005V385.005H1459V384.005H1458ZM1457 288.005V384.005H1459V288.005H1457ZM1458 383.005H1362V385.005H1458V383.005Z" fill="#D0D5DD" fill-opacity="0.32" mask="url(#path-129-inside-64_1_3250)"/>
<mask id="path-131-inside-65_1_3250" fill="white">
<path d="M-78 384.005H18V480.005H-78V384.005Z"/>
</mask>
<path d="M18 480.005V481.005H19V480.005H18ZM17 384.005V480.005H19V384.005H17ZM18 479.005H-78V481.005H18V479.005Z" fill="#D0D5DD" fill-opacity="0.32" mask="url(#path-131-inside-65_1_3250)"/>
<mask id="path-133-inside-66_1_3250" fill="white">
<path d="M18 384.005H114V480.005H18V384.005Z"/>
</mask>
<path d="M114 480.005V481.005H115V480.005H114ZM113 384.005V480.005H115V384.005H113ZM114 479.005H18V481.005H114V479.005Z" fill="#D0D5DD" fill-opacity="0.32" mask="url(#path-133-inside-66_1_3250)"/>
<mask id="path-135-inside-67_1_3250" fill="white">
<path d="M114 384.005H210V480.005H114V384.005Z"/>
</mask>
<path d="M210 480.005V481.005H211V480.005H210ZM209 384.005V480.005H211V384.005H209ZM210 479.005H114V481.005H210V479.005Z" fill="#D0D5DD" fill-opacity="0.32" mask="url(#path-135-inside-67_1_3250)"/>
<mask id="path-137-inside-68_1_3250" fill="white">
<path d="M210 384.005H306V480.005H210V384.005Z"/>
</mask>
<path d="M306 480.005V481.005H307V480.005H306ZM305 384.005V480.005H307V384.005H305ZM306 479.005H210V481.005H306V479.005Z" fill="#D0D5DD" fill-opacity="0.32" mask="url(#path-137-inside-68_1_3250)"/>
<mask id="path-139-inside-69_1_3250" fill="white">
<path d="M306 384.005H402V480.005H306V384.005Z"/>
</mask>
<path d="M402 480.005V481.005H403V480.005H402ZM401 384.005V480.005H403V384.005H401ZM402 479.005H306V481.005H402V479.005Z" fill="#D0D5DD" fill-opacity="0.32" mask="url(#path-139-inside-69_1_3250)"/>
<mask id="path-141-inside-70_1_3250" fill="white">
<path d="M402 384.005H498V480.005H402V384.005Z"/>
</mask>
<path d="M498 480.005V481.005H499V480.005H498ZM497 384.005V480.005H499V384.005H497ZM498 479.005H402V481.005H498V479.005Z" fill="#D0D5DD" fill-opacity="0.32" mask="url(#path-141-inside-70_1_3250)"/>
<mask id="path-143-inside-71_1_3250" fill="white">
<path d="M498 384.005H594V480.005H498V384.005Z"/>
</mask>
<path d="M498 384.005H594V480.005H498V384.005Z" fill="#F2F4F7" fill-opacity="0.1"/>
<path d="M594 480.005V481.005H595V480.005H594ZM593 384.005V480.005H595V384.005H593ZM594 479.005H498V481.005H594V479.005Z" fill="#D0D5DD" fill-opacity="0.32" mask="url(#path-143-inside-71_1_3250)"/>
<mask id="path-145-inside-72_1_3250" fill="white">
<path d="M594 384.005H690V480.005H594V384.005Z"/>
</mask>
<path d="M690 480.005V481.005H691V480.005H690ZM689 384.005V480.005H691V384.005H689ZM690 479.005H594V481.005H690V479.005Z" fill="#D0D5DD" fill-opacity="0.32" mask="url(#path-145-inside-72_1_3250)"/>
<mask id="path-147-inside-73_1_3250" fill="white">
<path d="M690 384.005H786V480.005H690V384.005Z"/>
</mask>
<path d="M786 480.005V481.005H787V480.005H786ZM785 384.005V480.005H787V384.005H785ZM786 479.005H690V481.005H786V479.005Z" fill="#D0D5DD" fill-opacity="0.32" mask="url(#path-147-inside-73_1_3250)"/>
<mask id="path-149-inside-74_1_3250" fill="white">
<path d="M786 384.005H882V480.005H786V384.005Z"/>
</mask>
<path d="M882 480.005V481.005H883V480.005H882ZM881 384.005V480.005H883V384.005H881ZM882 479.005H786V481.005H882V479.005Z" fill="#D0D5DD" fill-opacity="0.32" mask="url(#path-149-inside-74_1_3250)"/>
<mask id="path-151-inside-75_1_3250" fill="white">
<path d="M882 384.005H978V480.005H882V384.005Z"/>
</mask>
<path d="M978 480.005V481.005H979V480.005H978ZM977 384.005V480.005H979V384.005H977ZM978 479.005H882V481.005H978V479.005Z" fill="#D0D5DD" fill-opacity="0.32" mask="url(#path-151-inside-75_1_3250)"/>
<mask id="path-153-inside-76_1_3250" fill="white">
<path d="M978 384.005H1074V480.005H978V384.005Z"/>
</mask>
<path d="M1074 480.005V481.005H1075V480.005H1074ZM1073 384.005V480.005H1075V384.005H1073ZM1074 479.005H978V481.005H1074V479.005Z" fill="#D0D5DD" fill-opacity="0.32" mask="url(#path-153-inside-76_1_3250)"/>
<mask id="path-155-inside-77_1_3250" fill="white">
<path d="M1074 384.005H1170V480.005H1074V384.005Z"/>
</mask>
<path d="M1170 480.005V481.005H1171V480.005H1170ZM1169 384.005V480.005H1171V384.005H1169ZM1170 479.005H1074V481.005H1170V479.005Z" fill="#D0D5DD" fill-opacity="0.32" mask="url(#path-155-inside-77_1_3250)"/>
<mask id="path-157-inside-78_1_3250" fill="white">
<path d="M1170 384.005H1266V480.005H1170V384.005Z"/>
</mask>
<path d="M1266 480.005V481.005H1267V480.005H1266ZM1265 384.005V480.005H1267V384.005H1265ZM1266 479.005H1170V481.005H1266V479.005Z" fill="#D0D5DD" fill-opacity="0.32" mask="url(#path-157-inside-78_1_3250)"/>
<mask id="path-159-inside-79_1_3250" fill="white">
<path d="M1266 384.005H1362V480.005H1266V384.005Z"/>
</mask>
<path d="M1362 480.005V481.005H1363V480.005H1362ZM1361 384.005V480.005H1363V384.005H1361ZM1362 479.005H1266V481.005H1362V479.005Z" fill="#D0D5DD" fill-opacity="0.32" mask="url(#path-159-inside-79_1_3250)"/>
<mask id="path-161-inside-80_1_3250" fill="white">
<path d="M1362 384.005H1458V480.005H1362V384.005Z"/>
</mask>
<path d="M1458 480.005V481.005H1459V480.005H1458ZM1457 384.005V480.005H1459V384.005H1457ZM1458 479.005H1362V481.005H1458V479.005Z" fill="#D0D5DD" fill-opacity="0.32" mask="url(#path-161-inside-80_1_3250)"/>
<mask id="path-163-inside-81_1_3250" fill="white">
<path d="M-78 480.005H18V576.005H-78V480.005Z"/>
</mask>
<path d="M18 576.005V577.005H19V576.005H18ZM17 480.005V576.005H19V480.005H17ZM18 575.005H-78V577.005H18V575.005Z" fill="#D0D5DD" fill-opacity="0.32" mask="url(#path-163-inside-81_1_3250)"/>
<mask id="path-165-inside-82_1_3250" fill="white">
<path d="M18 480.005H114V576.005H18V480.005Z"/>
</mask>
<path d="M114 576.005V577.005H115V576.005H114ZM113 480.005V576.005H115V480.005H113ZM114 575.005H18V577.005H114V575.005Z" fill="#D0D5DD" fill-opacity="0.32" mask="url(#path-165-inside-82_1_3250)"/>
<mask id="path-167-inside-83_1_3250" fill="white">
<path d="M114 480.005H210V576.005H114V480.005Z"/>
</mask>
<path d="M210 576.005V577.005H211V576.005H210ZM209 480.005V576.005H211V480.005H209ZM210 575.005H114V577.005H210V575.005Z" fill="#D0D5DD" fill-opacity="0.32" mask="url(#path-167-inside-83_1_3250)"/>
<mask id="path-169-inside-84_1_3250" fill="white">
<path d="M210 480.005H306V576.005H210V480.005Z"/>
</mask>
<path d="M210 480.005H306V576.005H210V480.005Z" fill="#F2F4F7" fill-opacity="0.1"/>
<path d="M306 576.005V577.005H307V576.005H306ZM305 480.005V576.005H307V480.005H305ZM306 575.005H210V577.005H306V575.005Z" fill="#D0D5DD" fill-opacity="0.32" mask="url(#path-169-inside-84_1_3250)"/>
<mask id="path-171-inside-85_1_3250" fill="white">
<path d="M306 480.005H402V576.005H306V480.005Z"/>
</mask>
<path d="M402 576.005V577.005H403V576.005H402ZM401 480.005V576.005H403V480.005H401ZM402 575.005H306V577.005H402V575.005Z" fill="#D0D5DD" fill-opacity="0.32" mask="url(#path-171-inside-85_1_3250)"/>
<mask id="path-173-inside-86_1_3250" fill="white">
<path d="M402 480.005H498V576.005H402V480.005Z"/>
</mask>
<path d="M498 576.005V577.005H499V576.005H498ZM497 480.005V576.005H499V480.005H497ZM498 575.005H402V577.005H498V575.005Z" fill="#D0D5DD" fill-opacity="0.32" mask="url(#path-173-inside-86_1_3250)"/>
<mask id="path-175-inside-87_1_3250" fill="white">
<path d="M498 480.005H594V576.005H498V480.005Z"/>
</mask>
<path d="M594 576.005V577.005H595V576.005H594ZM593 480.005V576.005H595V480.005H593ZM594 575.005H498V577.005H594V575.005Z" fill="#D0D5DD" fill-opacity="0.32" mask="url(#path-175-inside-87_1_3250)"/>
<mask id="path-177-inside-88_1_3250" fill="white">
<path d="M594 480.005H690V576.005H594V480.005Z"/>
</mask>
<path d="M690 576.005V577.005H691V576.005H690ZM689 480.005V576.005H691V480.005H689ZM690 575.005H594V577.005H690V575.005Z" fill="#D0D5DD" fill-opacity="0.32" mask="url(#path-177-inside-88_1_3250)"/>
<mask id="path-179-inside-89_1_3250" fill="white">
<path d="M690 480.005H786V576.005H690V480.005Z"/>
</mask>
<path d="M786 576.005V577.005H787V576.005H786ZM785 480.005V576.005H787V480.005H785ZM786 575.005H690V577.005H786V575.005Z" fill="#D0D5DD" fill-opacity="0.32" mask="url(#path-179-inside-89_1_3250)"/>
<mask id="path-181-inside-90_1_3250" fill="white">
<path d="M786 480.005H882V576.005H786V480.005Z"/>
</mask>
<path d="M786 480.005H882V576.005H786V480.005Z" fill="#F2F4F7" fill-opacity="0.1"/>
<path d="M882 576.005V577.005H883V576.005H882ZM881 480.005V576.005H883V480.005H881ZM882 575.005H786V577.005H882V575.005Z" fill="#D0D5DD" fill-opacity="0.32" mask="url(#path-181-inside-90_1_3250)"/>
<mask id="path-183-inside-91_1_3250" fill="white">
<path d="M882 480.005H978V576.005H882V480.005Z"/>
</mask>
<path d="M978 576.005V577.005H979V576.005H978ZM977 480.005V576.005H979V480.005H977ZM978 575.005H882V577.005H978V575.005Z" fill="#D0D5DD" fill-opacity="0.32" mask="url(#path-183-inside-91_1_3250)"/>
<mask id="path-185-inside-92_1_3250" fill="white">
<path d="M978 480.005H1074V576.005H978V480.005Z"/>
</mask>
<path d="M1074 576.005V577.005H1075V576.005H1074ZM1073 480.005V576.005H1075V480.005H1073ZM1074 575.005H978V577.005H1074V575.005Z" fill="#D0D5DD" fill-opacity="0.32" mask="url(#path-185-inside-92_1_3250)"/>
<mask id="path-187-inside-93_1_3250" fill="white">
<path d="M1074 480.005H1170V576.005H1074V480.005Z"/>
</mask>
<path d="M1170 576.005V577.005H1171V576.005H1170ZM1169 480.005V576.005H1171V480.005H1169ZM1170 575.005H1074V577.005H1170V575.005Z" fill="#D0D5DD" fill-opacity="0.32" mask="url(#path-187-inside-93_1_3250)"/>
<mask id="path-189-inside-94_1_3250" fill="white">
<path d="M1170 480.005H1266V576.005H1170V480.005Z"/>
</mask>
<path d="M1266 576.005V577.005H1267V576.005H1266ZM1265 480.005V576.005H1267V480.005H1265ZM1266 575.005H1170V577.005H1266V575.005Z" fill="#D0D5DD" fill-opacity="0.32" mask="url(#path-189-inside-94_1_3250)"/>
<mask id="path-191-inside-95_1_3250" fill="white">
<path d="M1266 480.005H1362V576.005H1266V480.005Z"/>
</mask>
<path d="M1362 576.005V577.005H1363V576.005H1362ZM1361 480.005V576.005H1363V480.005H1361ZM1362 575.005H1266V577.005H1362V575.005Z" fill="#D0D5DD" fill-opacity="0.32" mask="url(#path-191-inside-95_1_3250)"/>
<mask id="path-193-inside-96_1_3250" fill="white">
<path d="M1362 480.005H1458V576.005H1362V480.005Z"/>
</mask>
<path d="M1458 576.005V577.005H1459V576.005H1458ZM1457 480.005V576.005H1459V480.005H1457ZM1458 575.005H1362V577.005H1458V575.005Z" fill="#D0D5DD" fill-opacity="0.32" mask="url(#path-193-inside-96_1_3250)"/>
<mask id="path-195-inside-97_1_3250" fill="white">
<path d="M-78 576.005H18V672.005H-78V576.005Z"/>
</mask>
<path d="M18 672.005V673.005H19V672.005H18ZM17 576.005V672.005H19V576.005H17ZM18 671.005H-78V673.005H18V671.005Z" fill="#D0D5DD" fill-opacity="0.32" mask="url(#path-195-inside-97_1_3250)"/>
<mask id="path-197-inside-98_1_3250" fill="white">
<path d="M18 576.005H114V672.005H18V576.005Z"/>
</mask>
<path d="M18 576.005H114V672.005H18V576.005Z" fill="#F2F4F7" fill-opacity="0.1"/>
<path d="M114 672.005V673.005H115V672.005H114ZM113 576.005V672.005H115V576.005H113ZM114 671.005H18V673.005H114V671.005Z" fill="#D0D5DD" fill-opacity="0.32" mask="url(#path-197-inside-98_1_3250)"/>
<mask id="path-199-inside-99_1_3250" fill="white">
<path d="M114 576.005H210V672.005H114V576.005Z"/>
</mask>
<path d="M210 672.005V673.005H211V672.005H210ZM209 576.005V672.005H211V576.005H209ZM210 671.005H114V673.005H210V671.005Z" fill="#D0D5DD" fill-opacity="0.32" mask="url(#path-199-inside-99_1_3250)"/>
<mask id="path-201-inside-100_1_3250" fill="white">
<path d="M210 576.005H306V672.005H210V576.005Z"/>
</mask>
<path d="M306 672.005V673.005H307V672.005H306ZM305 576.005V672.005H307V576.005H305ZM306 671.005H210V673.005H306V671.005Z" fill="#D0D5DD" fill-opacity="0.32" mask="url(#path-201-inside-100_1_3250)"/>
<mask id="path-203-inside-101_1_3250" fill="white">
<path d="M306 576.005H402V672.005H306V576.005Z"/>
</mask>
<path d="M402 672.005V673.005H403V672.005H402ZM401 576.005V672.005H403V576.005H401ZM402 671.005H306V673.005H402V671.005Z" fill="#D0D5DD" fill-opacity="0.32" mask="url(#path-203-inside-101_1_3250)"/>
<mask id="path-205-inside-102_1_3250" fill="white">
<path d="M402 576.005H498V672.005H402V576.005Z"/>
</mask>
<path d="M498 672.005V673.005H499V672.005H498ZM497 576.005V672.005H499V576.005H497ZM498 671.005H402V673.005H498V671.005Z" fill="#D0D5DD" fill-opacity="0.32" mask="url(#path-205-inside-102_1_3250)"/>
<mask id="path-207-inside-103_1_3250" fill="white">
<path d="M498 576.005H594V672.005H498V576.005Z"/>
</mask>
<path d="M594 672.005V673.005H595V672.005H594ZM593 576.005V672.005H595V576.005H593ZM594 671.005H498V673.005H594V671.005Z" fill="#D0D5DD" fill-opacity="0.32" mask="url(#path-207-inside-103_1_3250)"/>
<mask id="path-209-inside-104_1_3250" fill="white">
<path d="M594 576.005H690V672.005H594V576.005Z"/>
</mask>
<path d="M690 672.005V673.005H691V672.005H690ZM689 576.005V672.005H691V576.005H689ZM690 671.005H594V673.005H690V671.005Z" fill="#D0D5DD" fill-opacity="0.32" mask="url(#path-209-inside-104_1_3250)"/>
<mask id="path-211-inside-105_1_3250" fill="white">
<path d="M690 576.005H786V672.005H690V576.005Z"/>
</mask>
<path d="M786 672.005V673.005H787V672.005H786ZM785 576.005V672.005H787V576.005H785ZM786 671.005H690V673.005H786V671.005Z" fill="#D0D5DD" fill-opacity="0.32" mask="url(#path-211-inside-105_1_3250)"/>
<mask id="path-213-inside-106_1_3250" fill="white">
<path d="M786 576.005H882V672.005H786V576.005Z"/>
</mask>
<path d="M882 672.005V673.005H883V672.005H882ZM881 576.005V672.005H883V576.005H881ZM882 671.005H786V673.005H882V671.005Z" fill="#D0D5DD" fill-opacity="0.32" mask="url(#path-213-inside-106_1_3250)"/>
<mask id="path-215-inside-107_1_3250" fill="white">
<path d="M882 576.005H978V672.005H882V576.005Z"/>
</mask>
<path d="M978 672.005V673.005H979V672.005H978ZM977 576.005V672.005H979V576.005H977ZM978 671.005H882V673.005H978V671.005Z" fill="#D0D5DD" fill-opacity="0.32" mask="url(#path-215-inside-107_1_3250)"/>
<mask id="path-217-inside-108_1_3250" fill="white">
<path d="M978 576.005H1074V672.005H978V576.005Z"/>
</mask>
<path d="M1074 672.005V673.005H1075V672.005H1074ZM1073 576.005V672.005H1075V576.005H1073ZM1074 671.005H978V673.005H1074V671.005Z" fill="#D0D5DD" fill-opacity="0.32" mask="url(#path-217-inside-108_1_3250)"/>
<mask id="path-219-inside-109_1_3250" fill="white">
<path d="M1074 576.005H1170V672.005H1074V576.005Z"/>
</mask>
<path d="M1170 672.005V673.005H1171V672.005H1170ZM1169 576.005V672.005H1171V576.005H1169ZM1170 671.005H1074V673.005H1170V671.005Z" fill="#D0D5DD" fill-opacity="0.32" mask="url(#path-219-inside-109_1_3250)"/>
<mask id="path-221-inside-110_1_3250" fill="white">
<path d="M1170 576.005H1266V672.005H1170V576.005Z"/>
</mask>
<path d="M1266 672.005V673.005H1267V672.005H1266ZM1265 576.005V672.005H1267V576.005H1265ZM1266 671.005H1170V673.005H1266V671.005Z" fill="#D0D5DD" fill-opacity="0.32" mask="url(#path-221-inside-110_1_3250)"/>
<mask id="path-223-inside-111_1_3250" fill="white">
<path d="M1266 576.005H1362V672.005H1266V576.005Z"/>
</mask>
<path d="M1266 576.005H1362V672.005H1266V576.005Z" fill="#F2F4F7" fill-opacity="0.1"/>
<path d="M1362 672.005V673.005H1363V672.005H1362ZM1361 576.005V672.005H1363V576.005H1361ZM1362 671.005H1266V673.005H1362V671.005Z" fill="#D0D5DD" fill-opacity="0.32" mask="url(#path-223-inside-111_1_3250)"/>
<mask id="path-225-inside-112_1_3250" fill="white">
<path d="M1362 576.005H1458V672.005H1362V576.005Z"/>
</mask>
<path d="M1458 672.005V673.005H1459V672.005H1458ZM1457 576.005V672.005H1459V576.005H1457ZM1458 671.005H1362V673.005H1458V671.005Z" fill="#D0D5DD" fill-opacity="0.32" mask="url(#path-225-inside-112_1_3250)"/>
<mask id="path-227-inside-113_1_3250" fill="white">
<path d="M-78 672.005H18V768.005H-78V672.005Z"/>
</mask>
<path d="M18 768.005V769.005H19V768.005H18ZM17 672.005V768.005H19V672.005H17ZM18 767.005H-78V769.005H18V767.005Z" fill="#D0D5DD" fill-opacity="0.32" mask="url(#path-227-inside-113_1_3250)"/>
<mask id="path-229-inside-114_1_3250" fill="white">
<path d="M18 672.005H114V768.005H18V672.005Z"/>
</mask>
<path d="M114 768.005V769.005H115V768.005H114ZM113 672.005V768.005H115V672.005H113ZM114 767.005H18V769.005H114V767.005Z" fill="#D0D5DD" fill-opacity="0.32" mask="url(#path-229-inside-114_1_3250)"/>
<mask id="path-231-inside-115_1_3250" fill="white">
<path d="M114 672.005H210V768.005H114V672.005Z"/>
</mask>
<path d="M210 768.005V769.005H211V768.005H210ZM209 672.005V768.005H211V672.005H209ZM210 767.005H114V769.005H210V767.005Z" fill="#D0D5DD" fill-opacity="0.32" mask="url(#path-231-inside-115_1_3250)"/>
<mask id="path-233-inside-116_1_3250" fill="white">
<path d="M210 672.005H306V768.005H210V672.005Z"/>
</mask>
<path d="M306 768.005V769.005H307V768.005H306ZM305 672.005V768.005H307V672.005H305ZM306 767.005H210V769.005H306V767.005Z" fill="#D0D5DD" fill-opacity="0.32" mask="url(#path-233-inside-116_1_3250)"/>
<mask id="path-235-inside-117_1_3250" fill="white">
<path d="M306 672.005H402V768.005H306V672.005Z"/>
</mask>
<path d="M402 768.005V769.005H403V768.005H402ZM401 672.005V768.005H403V672.005H401ZM402 767.005H306V769.005H402V767.005Z" fill="#D0D5DD" fill-opacity="0.32" mask="url(#path-235-inside-117_1_3250)"/>
<mask id="path-237-inside-118_1_3250" fill="white">
<path d="M402 672.005H498V768.005H402V672.005Z"/>
</mask>
<path d="M498 768.005V769.005H499V768.005H498ZM497 672.005V768.005H499V672.005H497ZM498 767.005H402V769.005H498V767.005Z" fill="#D0D5DD" fill-opacity="0.32" mask="url(#path-237-inside-118_1_3250)"/>
<mask id="path-239-inside-119_1_3250" fill="white">
<path d="M498 672.005H594V768.005H498V672.005Z"/>
</mask>
<path d="M498 672.005H594V768.005H498V672.005Z" fill="#F2F4F7" fill-opacity="0.1"/>
<path d="M594 768.005V769.005H595V768.005H594ZM593 672.005V768.005H595V672.005H593ZM594 767.005H498V769.005H594V767.005Z" fill="#D0D5DD" fill-opacity="0.32" mask="url(#path-239-inside-119_1_3250)"/>
<mask id="path-241-inside-120_1_3250" fill="white">
<path d="M594 672.005H690V768.005H594V672.005Z"/>
</mask>
<path d="M690 768.005V769.005H691V768.005H690ZM689 672.005V768.005H691V672.005H689ZM690 767.005H594V769.005H690V767.005Z" fill="#D0D5DD" fill-opacity="0.32" mask="url(#path-241-inside-120_1_3250)"/>
<mask id="path-243-inside-121_1_3250" fill="white">
<path d="M690 672.005H786V768.005H690V672.005Z"/>
</mask>
<path d="M786 768.005V769.005H787V768.005H786ZM785 672.005V768.005H787V672.005H785ZM786 767.005H690V769.005H786V767.005Z" fill="#D0D5DD" fill-opacity="0.32" mask="url(#path-243-inside-121_1_3250)"/>
<mask id="path-245-inside-122_1_3250" fill="white">
<path d="M786 672.005H882V768.005H786V672.005Z"/>
</mask>
<path d="M882 768.005V769.005H883V768.005H882ZM881 672.005V768.005H883V672.005H881ZM882 767.005H786V769.005H882V767.005Z" fill="#D0D5DD" fill-opacity="0.32" mask="url(#path-245-inside-122_1_3250)"/>
<mask id="path-247-inside-123_1_3250" fill="white">
<path d="M882 672.005H978V768.005H882V672.005Z"/>
</mask>
<path d="M978 768.005V769.005H979V768.005H978ZM977 672.005V768.005H979V672.005H977ZM978 767.005H882V769.005H978V767.005Z" fill="#D0D5DD" fill-opacity="0.32" mask="url(#path-247-inside-123_1_3250)"/>
<mask id="path-249-inside-124_1_3250" fill="white">
<path d="M978 672.005H1074V768.005H978V672.005Z"/>
</mask>
<path d="M1074 768.005V769.005H1075V768.005H1074ZM1073 672.005V768.005H1075V672.005H1073ZM1074 767.005H978V769.005H1074V767.005Z" fill="#D0D5DD" fill-opacity="0.32" mask="url(#path-249-inside-124_1_3250)"/>
<mask id="path-251-inside-125_1_3250" fill="white">
<path d="M1074 672.005H1170V768.005H1074V672.005Z"/>
</mask>
<path d="M1074 672.005H1170V768.005H1074V672.005Z" fill="#F2F4F7" fill-opacity="0.1"/>
<path d="M1170 768.005V769.005H1171V768.005H1170ZM1169 672.005V768.005H1171V672.005H1169ZM1170 767.005H1074V769.005H1170V767.005Z" fill="#D0D5DD" fill-opacity="0.32" mask="url(#path-251-inside-125_1_3250)"/>
<mask id="path-253-inside-126_1_3250" fill="white">
<path d="M1170 672.005H1266V768.005H1170V672.005Z"/>
</mask>
<path d="M1266 768.005V769.005H1267V768.005H1266ZM1265 672.005V768.005H1267V672.005H1265ZM1266 767.005H1170V769.005H1266V767.005Z" fill="#D0D5DD" fill-opacity="0.32" mask="url(#path-253-inside-126_1_3250)"/>
<mask id="path-255-inside-127_1_3250" fill="white">
<path d="M1266 672.005H1362V768.005H1266V672.005Z"/>
</mask>
<path d="M1362 768.005V769.005H1363V768.005H1362ZM1361 672.005V768.005H1363V672.005H1361ZM1362 767.005H1266V769.005H1362V767.005Z" fill="#D0D5DD" fill-opacity="0.32" mask="url(#path-255-inside-127_1_3250)"/>
<mask id="path-257-inside-128_1_3250" fill="white">
<path d="M1362 672.005H1458V768.005H1362V672.005Z"/>
</mask>
<path d="M1458 768.005V769.005H1459V768.005H1458ZM1457 672.005V768.005H1459V672.005H1457ZM1458 767.005H1362V769.005H1458V767.005Z" fill="#D0D5DD" fill-opacity="0.32" mask="url(#path-257-inside-128_1_3250)"/>
<mask id="path-259-inside-129_1_3250" fill="white">
<path d="M-78 768.005H18V864.005H-78V768.005Z"/>
</mask>
<path d="M18 864.005V865.005H19V864.005H18ZM17 768.005V864.005H19V768.005H17ZM18 863.005H-78V865.005H18V863.005Z" fill="#D0D5DD" fill-opacity="0.32" mask="url(#path-259-inside-129_1_3250)"/>
<mask id="path-261-inside-130_1_3250" fill="white">
<path d="M18 768.005H114V864.005H18V768.005Z"/>
</mask>
<path d="M114 864.005V865.005H115V864.005H114ZM113 768.005V864.005H115V768.005H113ZM114 863.005H18V865.005H114V863.005Z" fill="#D0D5DD" fill-opacity="0.32" mask="url(#path-261-inside-130_1_3250)"/>
<mask id="path-263-inside-131_1_3250" fill="white">
<path d="M114 768.005H210V864.005H114V768.005Z"/>
</mask>
<path d="M210 864.005V865.005H211V864.005H210ZM209 768.005V864.005H211V768.005H209ZM210 863.005H114V865.005H210V863.005Z" fill="#D0D5DD" fill-opacity="0.32" mask="url(#path-263-inside-131_1_3250)"/>
<mask id="path-265-inside-132_1_3250" fill="white">
<path d="M210 768.005H306V864.005H210V768.005Z"/>
</mask>
<path d="M210 768.005H306V864.005H210V768.005Z" fill="#F2F4F7" fill-opacity="0.1"/>
<path d="M306 864.005V865.005H307V864.005H306ZM305 768.005V864.005H307V768.005H305ZM306 863.005H210V865.005H306V863.005Z" fill="#D0D5DD" fill-opacity="0.32" mask="url(#path-265-inside-132_1_3250)"/>
<mask id="path-267-inside-133_1_3250" fill="white">
<path d="M306 768.005H402V864.005H306V768.005Z"/>
</mask>
<path d="M402 864.005V865.005H403V864.005H402ZM401 768.005V864.005H403V768.005H401ZM402 863.005H306V865.005H402V863.005Z" fill="#D0D5DD" fill-opacity="0.32" mask="url(#path-267-inside-133_1_3250)"/>
<mask id="path-269-inside-134_1_3250" fill="white">
<path d="M402 768.005H498V864.005H402V768.005Z"/>
</mask>
<path d="M498 864.005V865.005H499V864.005H498ZM497 768.005V864.005H499V768.005H497ZM498 863.005H402V865.005H498V863.005Z" fill="#D0D5DD" fill-opacity="0.32" mask="url(#path-269-inside-134_1_3250)"/>
<mask id="path-271-inside-135_1_3250" fill="white">
<path d="M498 768.005H594V864.005H498V768.005Z"/>
</mask>
<path d="M594 864.005V865.005H595V864.005H594ZM593 768.005V864.005H595V768.005H593ZM594 863.005H498V865.005H594V863.005Z" fill="#D0D5DD" fill-opacity="0.32" mask="url(#path-271-inside-135_1_3250)"/>
<mask id="path-273-inside-136_1_3250" fill="white">
<path d="M594 768.005H690V864.005H594V768.005Z"/>
</mask>
<path d="M690 864.005V865.005H691V864.005H690ZM689 768.005V864.005H691V768.005H689ZM690 863.005H594V865.005H690V863.005Z" fill="#D0D5DD" fill-opacity="0.32" mask="url(#path-273-inside-136_1_3250)"/>
<mask id="path-275-inside-137_1_3250" fill="white">
<path d="M690 768.005H786V864.005H690V768.005Z"/>
</mask>
<path d="M786 864.005V865.005H787V864.005H786ZM785 768.005V864.005H787V768.005H785ZM786 863.005H690V865.005H786V863.005Z" fill="#D0D5DD" fill-opacity="0.32" mask="url(#path-275-inside-137_1_3250)"/>
<mask id="path-277-inside-138_1_3250" fill="white">
<path d="M786 768.005H882V864.005H786V768.005Z"/>
</mask>
<path d="M786 768.005H882V864.005H786V768.005Z" fill="#F2F4F7" fill-opacity="0.1"/>
<path d="M882 864.005V865.005H883V864.005H882ZM881 768.005V864.005H883V768.005H881ZM882 863.005H786V865.005H882V863.005Z" fill="#D0D5DD" fill-opacity="0.32" mask="url(#path-277-inside-138_1_3250)"/>
<mask id="path-279-inside-139_1_3250" fill="white">
<path d="M882 768.005H978V864.005H882V768.005Z"/>
</mask>
<path d="M978 864.005V865.005H979V864.005H978ZM977 768.005V864.005H979V768.005H977ZM978 863.005H882V865.005H978V863.005Z" fill="#D0D5DD" fill-opacity="0.32" mask="url(#path-279-inside-139_1_3250)"/>
<mask id="path-281-inside-140_1_3250" fill="white">
<path d="M978 768.005H1074V864.005H978V768.005Z"/>
</mask>
<path d="M1074 864.005V865.005H1075V864.005H1074ZM1073 768.005V864.005H1075V768.005H1073ZM1074 863.005H978V865.005H1074V863.005Z" fill="#D0D5DD" fill-opacity="0.32" mask="url(#path-281-inside-140_1_3250)"/>
<mask id="path-283-inside-141_1_3250" fill="white">
<path d="M1074 768.005H1170V864.005H1074V768.005Z"/>
</mask>
<path d="M1170 864.005V865.005H1171V864.005H1170ZM1169 768.005V864.005H1171V768.005H1169ZM1170 863.005H1074V865.005H1170V863.005Z" fill="#D0D5DD" fill-opacity="0.32" mask="url(#path-283-inside-141_1_3250)"/>
<mask id="path-285-inside-142_1_3250" fill="white">
<path d="M1170 768.005H1266V864.005H1170V768.005Z"/>
</mask>
<path d="M1266 864.005V865.005H1267V864.005H1266ZM1265 768.005V864.005H1267V768.005H1265ZM1266 863.005H1170V865.005H1266V863.005Z" fill="#D0D5DD" fill-opacity="0.32" mask="url(#path-285-inside-142_1_3250)"/>
<mask id="path-287-inside-143_1_3250" fill="white">
<path d="M1266 768.005H1362V864.005H1266V768.005Z"/>
</mask>
<path d="M1362 864.005V865.005H1363V864.005H1362ZM1361 768.005V864.005H1363V768.005H1361ZM1362 863.005H1266V865.005H1362V863.005Z" fill="#D0D5DD" fill-opacity="0.32" mask="url(#path-287-inside-143_1_3250)"/>
<mask id="path-289-inside-144_1_3250" fill="white">
<path d="M1362 768.005H1458V864.005H1362V768.005Z"/>
</mask>
<path d="M1458 864.005V865.005H1459V864.005H1458ZM1457 768.005V864.005H1459V768.005H1457ZM1458 863.005H1362V865.005H1458V863.005Z" fill="#D0D5DD" fill-opacity="0.32" mask="url(#path-289-inside-144_1_3250)"/>
<mask id="path-291-inside-145_1_3250" fill="white">
<path d="M-78 864.005H18V960.005H-78V864.005Z"/>
</mask>
<path d="M18 960.005V961.005H19V960.005H18ZM17 864.005V960.005H19V864.005H17ZM18 959.005H-78V961.005H18V959.005Z" fill="#D0D5DD" fill-opacity="0.32" mask="url(#path-291-inside-145_1_3250)"/>
<mask id="path-293-inside-146_1_3250" fill="white">
<path d="M18 864.005H114V960.005H18V864.005Z"/>
</mask>
<path d="M114 960.005V961.005H115V960.005H114ZM113 864.005V960.005H115V864.005H113ZM114 959.005H18V961.005H114V959.005Z" fill="#D0D5DD" fill-opacity="0.32" mask="url(#path-293-inside-146_1_3250)"/>
<mask id="path-295-inside-147_1_3250" fill="white">
<path d="M114 864.005H210V960.005H114V864.005Z"/>
</mask>
<path d="M210 960.005V961.005H211V960.005H210ZM209 864.005V960.005H211V864.005H209ZM210 959.005H114V961.005H210V959.005Z" fill="#D0D5DD" fill-opacity="0.32" mask="url(#path-295-inside-147_1_3250)"/>
<mask id="path-297-inside-148_1_3250" fill="white">
<path d="M210 864.005H306V960.005H210V864.005Z"/>
</mask>
<path d="M306 960.005V961.005H307V960.005H306ZM305 864.005V960.005H307V864.005H305ZM306 959.005H210V961.005H306V959.005Z" fill="#D0D5DD" fill-opacity="0.32" mask="url(#path-297-inside-148_1_3250)"/>
<mask id="path-299-inside-149_1_3250" fill="white">
<path d="M306 864.005H402V960.005H306V864.005Z"/>
</mask>
<path d="M402 960.005V961.005H403V960.005H402ZM401 864.005V960.005H403V864.005H401ZM402 959.005H306V961.005H402V959.005Z" fill="#D0D5DD" fill-opacity="0.32" mask="url(#path-299-inside-149_1_3250)"/>
<mask id="path-301-inside-150_1_3250" fill="white">
<path d="M402 864.005H498V960.005H402V864.005Z"/>
</mask>
<path d="M498 960.005V961.005H499V960.005H498ZM497 864.005V960.005H499V864.005H497ZM498 959.005H402V961.005H498V959.005Z" fill="#D0D5DD" fill-opacity="0.32" mask="url(#path-301-inside-150_1_3250)"/>
<mask id="path-303-inside-151_1_3250" fill="white">
<path d="M498 864.005H594V960.005H498V864.005Z"/>
</mask>
<path d="M594 960.005V961.005H595V960.005H594ZM593 864.005V960.005H595V864.005H593ZM594 959.005H498V961.005H594V959.005Z" fill="#D0D5DD" fill-opacity="0.32" mask="url(#path-303-inside-151_1_3250)"/>
<mask id="path-305-inside-152_1_3250" fill="white">
<path d="M594 864.005H690V960.005H594V864.005Z"/>
</mask>
<path d="M690 960.005V961.005H691V960.005H690ZM689 864.005V960.005H691V864.005H689ZM690 959.005H594V961.005H690V959.005Z" fill="#D0D5DD" fill-opacity="0.32" mask="url(#path-305-inside-152_1_3250)"/>
<mask id="path-307-inside-153_1_3250" fill="white">
<path d="M690 864.005H786V960.005H690V864.005Z"/>
</mask>
<path d="M786 960.005V961.005H787V960.005H786ZM785 864.005V960.005H787V864.005H785ZM786 959.005H690V961.005H786V959.005Z" fill="#D0D5DD" fill-opacity="0.32" mask="url(#path-307-inside-153_1_3250)"/>
<mask id="path-309-inside-154_1_3250" fill="white">
<path d="M786 864.005H882V960.005H786V864.005Z"/>
</mask>
<path d="M882 960.005V961.005H883V960.005H882ZM881 864.005V960.005H883V864.005H881ZM882 959.005H786V961.005H882V959.005Z" fill="#D0D5DD" fill-opacity="0.32" mask="url(#path-309-inside-154_1_3250)"/>
<mask id="path-311-inside-155_1_3250" fill="white">
<path d="M882 864.005H978V960.005H882V864.005Z"/>
</mask>
<path d="M978 960.005V961.005H979V960.005H978ZM977 864.005V960.005H979V864.005H977ZM978 959.005H882V961.005H978V959.005Z" fill="#D0D5DD" fill-opacity="0.32" mask="url(#path-311-inside-155_1_3250)"/>
<mask id="path-313-inside-156_1_3250" fill="white">
<path d="M978 864.005H1074V960.005H978V864.005Z"/>
</mask>
<path d="M1074 960.005V961.005H1075V960.005H1074ZM1073 864.005V960.005H1075V864.005H1073ZM1074 959.005H978V961.005H1074V959.005Z" fill="#D0D5DD" fill-opacity="0.32" mask="url(#path-313-inside-156_1_3250)"/>
<mask id="path-315-inside-157_1_3250" fill="white">
<path d="M1074 864.005H1170V960.005H1074V864.005Z"/>
</mask>
<path d="M1170 960.005V961.005H1171V960.005H1170ZM1169 864.005V960.005H1171V864.005H1169ZM1170 959.005H1074V961.005H1170V959.005Z" fill="#D0D5DD" fill-opacity="0.32" mask="url(#path-315-inside-157_1_3250)"/>
<mask id="path-317-inside-158_1_3250" fill="white">
<path d="M1170 864.005H1266V960.005H1170V864.005Z"/>
</mask>
<path d="M1266 960.005V961.005H1267V960.005H1266ZM1265 864.005V960.005H1267V864.005H1265ZM1266 959.005H1170V961.005H1266V959.005Z" fill="#D0D5DD" fill-opacity="0.32" mask="url(#path-317-inside-158_1_3250)"/>
<mask id="path-319-inside-159_1_3250" fill="white">
<path d="M1266 864.005H1362V960.005H1266V864.005Z"/>
</mask>
<path d="M1362 960.005V961.005H1363V960.005H1362ZM1361 864.005V960.005H1363V864.005H1361ZM1362 959.005H1266V961.005H1362V959.005Z" fill="#D0D5DD" fill-opacity="0.32" mask="url(#path-319-inside-159_1_3250)"/>
<mask id="path-321-inside-160_1_3250" fill="white">
<path d="M1362 864.005H1458V960.005H1362V864.005Z"/>
</mask>
<path d="M1362 864.005H1458V960.005H1362V864.005Z" fill="#F2F4F7" fill-opacity="0.1"/>
<path d="M1458 960.005V961.005H1459V960.005H1458ZM1457 864.005V960.005H1459V864.005H1457ZM1458 959.005H1362V961.005H1458V959.005Z" fill="#D0D5DD" fill-opacity="0.32" mask="url(#path-321-inside-160_1_3250)"/>
</g>
<rect x="-269.5" y="0.505371" width="1919" height="1439" stroke="#D0D5DD" stroke-opacity="0.32"/>
</g>
</g>
<defs>
<radialGradient id="paint0_radial_1_3250" cx="0" cy="0" r="1" gradientUnits="userSpaceOnUse" gradientTransform="translate(720 -0.000142694) rotate(90) scale(1197 751.588)">
<stop/>
<stop offset="0.953125" stop-opacity="0"/>
</radialGradient>
<clipPath id="clip0_1_3250">
<rect width="1435.58" height="981.995" fill="white" transform="translate(-28 0.00537109)"/>
</clipPath>
<clipPath id="clip1_1_3250">
<rect x="-270" y="0.00537109" width="1920" height="1440" fill="white"/>
</clipPath>
</defs>
</svg>
